<svg width="62" height="69" viewBox="0 0 62 69" xmlns="http://www.w3.org/2000/svg" xmlns:xlink="http://www.w3.org/1999/xlink"><defs><path id="b" d="M0 .233h61.961v13.304H0z"/><path id="d" d="M.141.08h10.904v8.916H.14z"/><filter id="a"><feColorMatrix in="SourceGraphic" values="0 0 0 0 1.000000 0 0 0 0 1.000000 0 0 0 0 1.000000 0 0 0 1.000000 0"/></filter></defs><g filter="url(#a)" fill="none" fill-rule="evenodd"><g transform="translate(0 55.492)"><mask id="c" fill="#fff"><use xlink:href="#b"/></mask><path d="M7.982 5.226c-.105-.325-.398-1.052-.48-1.592-.178-1.19.443-1.976 1.016-2.156.637-.18.887.14 1.135.894.32 1.14.357 2.636.247 4.778-.138 2.925-1.596 6.459-5.223 6.386-3.129-.071-4.513-2.104-4.66-5.208-.066-1.462.039-2.924.644-4.993.319-1.105.604-1.501 1.597-1.716.784-.14.711.678.534 1.644-.39 2.14-.57 3.175-.425 5.601.14 2.568 1.315 3.567 2.593 3.567 1.92.037 2.774-1.567 3.128-3.887.285-1.858.073-2.748-.106-3.318m40.934 2.535c.745 0 .96.888.78 1.424-.178.534-.813 1.143-1.812 1.322-.21-.536-.318-2.746 1.032-2.746m-13.9 1.21c0-.608-.32-1.105-.707-1.105-.324 0-1.07.353-1.07 1.496 0 .895.318 1.321.464 1.502 1.025-.323 1.312-1.18 1.312-1.893M23.958 1.69c-.048-.571-.495-.959-1.1-.959-.673 0-1.309.707-1.245 1.602.044.59.39 1.073 1.07 1.073.78 0 1.348-.893 1.275-1.716m5.783 2.097c-.062-.997-.303-1.449-.836-1.411-.708.04-1.035 2.279-.89 4.627.093 1.532.319 1.77.533 1.755.39-.024 1.328-2.763 1.193-4.971m23.58 3.754c-.438 1.835-1.773 4.535-3.766 4.535-.462 0-1.28-.179-1.28-.645 0-.5 3.13-.568 3.13-2.962 0-.89-.816-2.14-2.027-2.14-1.598 0-3.16 1.749-3.16 4.177 0 2.173 1.348 2.887 2.698 2.887 2.346 0 3.767-1.928 4.512-3.533.36 1.07.568 3.533 1.46 3.533.358 0 .605-.178 1.033-1.14 1.065-2.393 2.096-5.141 3.521-5.141.53 0 .21.966 1.489.966.605 0 1.03-.5 1.03-1.073 0-.822-.744-1.462-1.884-1.462-3.34 0-4.049 5.032-4.584 5.032-.887 0-.605-4.033-1.244-4.033-.568 0-.852.683-.927 1m-28.438 4.28c.533 0 1.448-.174 2.17-1.333-.413-.917-.707-2.775-.747-3.45-.212-3.46 1.116-6.714 2.568-6.804 1.067-.064 1.92.948 2.018 2.587.261 4.312-1.169 6.109-1.883 7.664.121.6 1.136 1.622 2.094 1.622.357 0 .782-.179.892-.32a3.518 3.518 0 01-.145-1.035c0-2.497 1.6-4.602 2.987-4.602 1.103 0 1.742 1.46 1.742 2.426 0 1.14-.961 2.07-2.38 2.963.249.249.709.426 1.102.426 2.026 0 3.088-2.462 3.872-4.71.144-.427.397-1.034.89-1.034.855 0 1.213 5.638 2.63 5.638.605 0 1.1-1.252 1.1-2.212 0-.714-.248-.785-.248-1.82 0-1.143.607-2.1 1.425-2.1.499 0 .676.494.676 1.101 0 2.281-1.637 6.53-4.051 6.53-1.816 0-1.675-3.14-2.312-3.14-.715 0-1.711 3.174-5.227 3.174-.571 0-1.176-.285-1.67-.856-.854.571-1.567.822-2.384.822-1.314 0-1.884-1.355-2.415-1.355-.642 0-1.35 1.389-3.486 1.389-1.708 0-1.99-2.281-2.595-2.281-.535 0-1.349 2.28-2.237 2.28-1.497 0-1.813-3.955-3.131-3.955-1.03 0-4.288 4.015-5.171 3.925-.356-.037-.506-.303-.469-.658.05-.496.474-1.819.644-2.44.288-1.085.551-2.278.698-2.655.149-.379.543-.655.858-.624.16.014.211.313.26.556.179.884.428 1.784.711 1.784.5 0 2.148-3.174 3.106-3.174 1.177 0 1.317 4.996 2.917 4.996.536 0 .925-.641 1.28-1.43.037-1.323.394-3.21 1.458-3.21.747 0 1.104 1.676.568 3.141 0 1.748 1.14 2.174 1.885 2.174" fill="#1F36C7" mask="url(#c)"/></g><path d="M49.645 11.367c-.263 0-.641 0-.849-.418-.17-.34-.112-.89-.433-1.133.32.092.658.092.926.092.85 0 1.66-.584 2.283-.584.413 0 .544.264.544.528 0 .834-1.674 1.515-2.471 1.515m.418 2.138c1.959 0 3.753-1.57 3.753-2.951 0-.646-.305-1.174-1.078-1.268.134.169.19.302.19.606 0 1.04-1.584 2.197-3.3 2.197-.624 0-.811.435-.811.662 0 .529.509.754 1.246.754m-.155.796c.248 1.798 2.964 4.221 3.697 4.166.492-.044.681-2.346.681-4.166 0-1.042.057-1.855-.489-2.045-.87 1.763-3.15 2.12-3.89 2.045M7.45 26.209c.64 0 .51-3.936 1.547-3.936.243 0 .318.245.318.546 0 .892-.431 2.198-.431 2.917 0 .36.09.473.263.473.453 0 1.246-4.337 2.018-4.337.248 0 .359.25.359.495 0 .91-1.15 3.522-1.15 4.258 0 .112.036.208.13.208.472 0 1.416-2.042 1.716-3.066.17-.529.397-.815.606-.815.188 0 .359.208.359.646 0 1.02-.946 3.427-1.772 5.035-.642 1.25-1.64 3.05-1.64 4.05 0 .512.09 1.043.827 1.687-1.207-.076-1.7-.19-2.151-1.136-2.017 4.03 3.716 3.633 1.752 7.212-.356-.644-3.184-1.305-3.184-5.055 0-3.238 2.828-5.133 2.828-6.476 0-.265-.095-.49-.339-.698-.622-.532-.642-.966-1.131-.966-.361 0-.795.834-.34 1.57.15.246.282.396.282.626 0 .528-.83 1.95-1.413 1.95-.586 0-1.038-1.46-1.038-3.806 0-2.084.47-4.184 1.055-4.184.17 0 .226.113.226.266 0 .245-.074.735-.074 1.571 0 .89.207.965.376.965" fill="#1F36C7"/><path d="M12.26 31.755c.791 0 1.45-.59 1.45-1.891v-1.931c0-.738.058-1.569.549-2.162-.056.249-.056.514-.056.76 0 1.629.906 2.746.906 4.317 0 .585-.173.907-.625.907-.43 0-.394-.397-.488-.397-.074 0-.188.244-.188.509 0 .4.282 1.024 1.071 1.024.681 0 1.228-.625 1.228-1.324 0-1.703-1.32-3.595-1.32-5.414 0-.796.209-1.325.379-1.745 0 3.768 3.188 6.515 3.188 8.085 0 .362-.266.646-.66.646a.618.618 0 01-.643-.608c0-.131-.02-.168-.076-.168-.113 0-.452.379-.452.871 0 .622.508 1.38 1.452 1.38 1.075 0 1.66-.91 1.66-1.723 0-1.986-3.867-4.999-3.867-8.214 0-.551.094-1.439.49-2.121-2.49 1.608-3.262 3.748-3.262 5.62 0 1.63-.057 2.444-.887 2.444-.433 0-.546-.398-.696-.398-.115 0-.174.34-.174.437 0 .699.513 1.096 1.02 1.096M40.837 10.438c.241-.16 1.305.097 2.68-.585a1.01 1.01 0 01.488-.134c.661 0 .492.759 1.098.759.468 0 1.075-.397 1.434-.397.562 0 1.374 1.779 1.374 2.61 0 .968-1.448 1.553-3.17 1.553-2.505 0-4.017-2.196-4.017-3.614 0-.114.057-.152.113-.192m4.114 2.405c.831 0 1.453-.377 1.453-.606 0-.076-.113-.132-.357-.132-.247 0-.737-.017-1.663-.17-.794-.132-1.397-.434-1.622-.434-.076 0-.116.038-.116.095 0 .492.907 1.247 2.305 1.247M12.657 38.89c-.624.154-1.624 1.136-1.624 2.691 0 1.856 1.981 4.716 5.246 4.716 2.753 0 3.432-1.912 3.432-3.202 0-2.86-1.755-4.864-4.034-4.864-1.248 0-2.36.91-2.36 2.252 0 1.25.942 3.125 3.188 3.125 1.057 0 1.677-.758 1.677-1.628 0-.854-.772-2.025-1.903-2.025-.343 0-.585.223-.585.583 0 .454.622.913 1.394.913.189 0 .34-.04.418-.077.037.056.056.15.056.227 0 .433-.418.702-1.057.702-.963 0-1.889-.722-1.889-1.857 0-.68.587-1.175 1.433-1.175 1.681 0 2.681 1.496 2.681 2.99 0 1.347-.737 2.124-2.244 2.124-3.02 0-4.49-2.728-3.829-5.495M34.187 49.984c.907 0 .858-.077 1.144-.077.283 0 .301.171.301.288 0 .415-.925.927-2.566.927-.963 0-1.546-.512-1.718-1.08-.944.605-2.374 1.156-3.79 1.156-3.866 0-4.847-1.687-6.055-2.233-.925-.416-2.34.396-4.319-1.819.261.056.622.076.904.076 1.736 0 2.658-.85 2.658-2.216 0-.166-.016-.357-.038-.525.53.208 1.738 1.114 2.021 2.72.037.194.813.361 1.302.361.68 0 1.544-.28 1.677-1.4 2.265-.187 3.794-1.53 4.114-3.238.81.266 1.734 1.004 1.961 1.383.32-.114.698-.17 1.133-.17.604 0 1.28.114 2.092.363.037-.25.076-.554.456-.554.563 0 .413.628.6.987.094.188.57.301.57.682 0 .36-.305.49-.494.49a.892.892 0 01-.226-.035c-.374.13-.395 2.858-1.983 2.858-1.167 0-2.244-.968-2.714-2.174-.132-.364-.414-.591-.68-.591-.302 0-.47.057-.828.453-1.02 1.117-2.714 2.083-4.811 2.083-.641 0-1.15-.057-1.282-.057-.074 0-.074.017-.074.04 0 .13.639.642 2.033.642 3.322 0 4.134-1.875 4.66-1.875.08 0 .302 0 .432.304.776 1.816 2.465 2.23 3.52 2.23m-1.46-3.783c0 .416.34.76.754.76a.763.763 0 00.757-.76.76.76 0 00-.757-.756.758.758 0 00-.754.756M47.665 36.752c-.265 0-.548.21-.548.724 0 .565.435.924.681 1.039.132.074.34.15.545.15.546 0 .983-.15.983-.609 0-.58-.85-1.304-1.66-1.304m-2.036 1.174c-.396 0-2.588 2.936-4 2.936-.338 0-.62-.643-.62-1.132 0-.27.17-.459.771-.589 3.246-.741 2.527-3.183 5.3-3.183 1.527 0 3.226 1.042 3.226 3.39 0 2.499-3.544 5.6-4.073 5.6-.434 0-.906-.623-.906-1.04 0-.13.056-.3.435-.452 1.808-.721 2.845-2.388 2.845-3.237 0-.193-.095-.38-.339-.38-.32 0-1.693 3.143-3.224 3.143-1.057 0-2.133-.966-2.133-1.418 0-.76 3.059-2.16 3.059-3.22 0-.4-.189-.418-.34-.418M8.299 13.109s-.55.414-1.226.414c-.81 0-1.453-.603-1.453-1.456 0-.585.302-1.194 1-1.495-.017.114-.017.209-.017.322 0 1.08.602 1.895 1.696 2.215m4.036 3.634c-.415.494-.846 1.327-.846 2.178 0 1.02.62 1.876 1.583 1.876.924 0 1.357-.796 1.357-1.612 0-1.267-1.151-2.16-2.094-2.442m-6.263.758a.437.437 0 00-.056.208c0 .17.19.36.357.36.152 0 .247-.038.324-.038.45 0 .958.32 1.696.32.432 0 .944-.132 1.585-.452 1.36-.682 1.887-2.367 1.887-2.65 0-.362-.29-.313-.528-.646-.241-.33-.15-.62-.304-.776-.087-.089-.357-.092-.696-.13a3.639 3.639 0 00-.416-.02c-.623 0-1.363.077-2.19.604-1.636 1.049-1.395 2.782-1.66 3.22m4.433-2.347c.133.177.494.396.494.533 0 .264-.153.605-.455.605-.661 0-1.187-1.006-1.187-1.57 0-.364.206-.402.489-.402.133 0 .19.019.281.075.172.095.172.472.378.76m-1.735 2.307c-.62 0-1.302-.776-1.302-1.477 0-.377.282-.849.493-.849.074 0 .113.056.13.188.116.927.72 1.458 1.285 1.721.057.038.094.057.094.098 0 .129-.36.32-.7.32m1.605-4.772c.095-.304.169-.68.169-1.095 0-.91-.417-2.29-1.698-2.29-.735 0-1.265.586-1.265 1.285 0 1.497 1.493 2.1 2.794 2.1m-4.887 7.574c0 1.438.435 2.121 1.21 2.121.6 0 1.413-.438 2.376-1.27-.737.172-1.304.285-1.813.285-.678 0-1.207-.264-1.773-1.136m.66-1.684c-.015.095-.015.19-.015.284 0 .888.47 1.382 1.091 1.382.47 0 1.02-.287 1.51-.91a3.917 3.917 0 01-.679.056c-.7 0-1.451-.19-1.907-.812m4.624-.267c-.434.115-1.34.645-1.34 1.59 0 .682.527 1.12 1.188 1.12.338 0 .585-.08.733-.192-.526-.51-.715-1.08-.715-1.647 0-.398.058-.641.134-.871m.679-5.19a.76.76 0 00.754.762.758.758 0 000-1.515.756.756 0 00-.754.753m.978 1.706c0 .42.344.76.757.76a.757.757 0 000-1.514.76.76 0 00-.757.754M41.857 24.126c0-.378.34-.699.715-.699.415 0 .736.321.736.699 0 .435-.321.74-.736.74a.724.724 0 01-.715-.74m-6.622-5.832a.76.76 0 00.755.759.757.757 0 000-1.514.76.76 0 00-.755.755m-.64 2.67c0 .588.49 1.078 1.074 1.078.585 0 1.076-.49 1.076-1.079 0-.585-.49-1.077-1.076-1.077-.585 0-1.074.492-1.074 1.077m2.376-1.21c0 .645.513 1.153 1.15 1.153.64 0 1.151-.508 1.151-1.153 0-.643-.51-1.153-1.151-1.153-.637 0-1.15.51-1.15 1.153m.098-2.461a.714.714 0 101.43 0 .714.714 0 10-1.43 0m3.41-1.818c0 .398.32.723.719.723a.723.723 0 000-1.443.72.72 0 00-.719.72m-1.416 2.33c0 .663.548 1.212 1.211 1.212.66 0 1.207-.549 1.207-1.212 0-.661-.546-1.211-1.207-1.211-.663 0-1.21.55-1.21 1.211m-1.943 4.432c0 .414.342.754.752.754.416 0 .757-.34.757-.754 0-.417-.34-.76-.757-.76a.762.762 0 00-.752.76m2.472-1.518c0 .419.34.758.755.758s.752-.34.752-.758a.757.757 0 00-.752-.758.76.76 0 00-.755.758m-.697 2.672c0 .717.584 1.306 1.302 1.306a1.308 1.308 0 000-2.613c-.718 0-1.302.586-1.302 1.307m2.715-1.611a.887.887 0 101.774 0 .888.888 0 10-1.774 0m-.056-2.386a.8.8 0 00.791.796.8.8 0 00.793-.796.8.8 0 00-.793-.793.8.8 0 00-.79.793M43.477 44.23a5.535 5.535 0 01-3.544 1.233c-1.02 0-1.473-.324-1.623-.324-.19 0-.398.19-.606.435-.448.531-1.033 1.518-1.033 2.594 0 .76.585 1.513 1.676 1.513 3.532 0 6.169-2.212 6.169-4.012 0-1.02-.604-1.438-1.039-1.438m-.977-.207c.15-.133.187-.342.187-.55v-.435c0-.55-.83-.871-1.963-.871-1.378 0-2.112.626-2.112.89v.87c0 .36.83.72 1.849.72.813 0 1.55-.21 2.039-.624m-.154 1.875c.093 0 .207.054.207.398 0 .414-.189.966-.865 1.397-.473.323-1.114.59-2.058.606.15-.454.264-.927.264-1.38 0-.153-.018-.266-.037-.434h.247c1.49 0 2.132-.587 2.242-.587M35.14 22.765c.207 1.608 2.362.796 2.362 2.742 0 .284-.076.702-.076 1.06 0 .42.037.779.354.779.32 0 .396-.227.396-.53 0-.305-.075-.682-.075-.89 0-.664.472-.815.757-.815.714 0 1.264.739 2.34.739-.246 1.212-2.738.887-2.738 2.214 0 .663.66.815 1.094.815.4 0 .53-.058.53-.397 0-.19-.036-.397-.036-.534a.15.15 0 01.15-.15c.413 0 2.448 1.554 2.448 2.026 0 .435-2.148.872-2.77.872-.19 0-.228-.134-.228-.207 0-.133.32-.532.32-.76 0-.168-.283-.282-1.036-.282-.36 0-.622.038-.622.322 0 .512.83 1.136.83 1.607 0 .38-.227.61-.83.61-.513 0-1.283-.402-1.283-1.062 0-.532.546-1.06.546-1.382 0-.095-.071-.245-.3-.245-.697 0-.887 1.853-3.36 2.06.397-.358.738-.757.738-1.57 0-.397-.095-.72-.095-1.154 0-.569.263-.854.64-.854.7 0 1.038.985 1.493.985.246 0 .51-.225.51-.567 0-1.44-2.755-1.23-2.755-3.256 0-.55.188-1.23.696-2.176m8.998 5.546c0 .473.152 1.021.624 1.021.396 0 .735-.605.735-1.268 0-.755-.131-1.346-.131-1.646 0-.133.057-.19.131-.19.285.02.55.797.853.797.34 0 .843-.627 1.05-.627.058 0 .075.075.075.095 0 .283-.432.908-.432 1.154 0 .208 1.094.245 1.094.438 0 .283-1.148.283-1.696.53-.527.226-.85.51-.85.89 0 .377.38.452.908.452 1.262 0 2.146-.68 2.43-.68.058 0 .092.038.092.093 0 .19-.64.813-.64 1.1 0 .322 1.173.695 1.15.887-.016.057-.092.076-.224.076-.207 0-.527-.057-.775-.057-.15 0-.282.02-.34.095-.13.15.04 1.156-.225 1.156-.246 0-.887-2.235-2.337-2.235-.207 0-.359.17-.359.456 0 .754.737 1.627 1.437 2.042.316.207.844.418.844.532 0 .226-1.202.018-1.202.396 0 .343.149.856.149 1.155 0 .095-.019.209-.134.209-.224 0-.773-1.04-1.037-1.04-.225 0-.716.623-.925.623-.057 0-.095-.056-.095-.112 0-.438.7-1.419.7-2.387 0-.453-.057-1.436-.605-1.436-.452 0-.963.716-1.189 1.436-.132.416-.037 2.028-.339 2.028-.285 0-.21-1.08-.587-1.08-.278 0-.883.512-1.09.512-.037 0-.074-.022-.074-.059 0-.227.544-.965.544-1.117 0-.284-1.244-.321-1.244-.548 0-.135.489-.227.944-.305.96-.169 2.374-.867 2.374-1.853 0-1.099-1.055-1.571-1.752-2.026-.36-.227-.754-.417-.754-.567 0-.15.452-.15.643-.15.281 0 .56-.021.56-.25 0-.17-.037-.51-.037-.774 0-.188.02-.34.098-.34.277 0 .677.925.864.925.3 0 .72-.755 1-.755.094 0 .133.058.133.227 0 .699-.359 1.494-.359 2.177" fill="#1F36C7"/><path d="M35.69 33.554c.868.113 1.074.418 1.074.661 0 .418-.378.55-.737.55-.263 0-.563-.056-.887-.056-.415 0-.83.094-1.17.493.248.035.605.206.605.587 0 1.098-3.038.19-3.038 3.009 0 1.495 1.546 3.123 3.886 3.123 1.21 0 1.985-.396 1.985-.853 0-.359-.644-.113-.644-.414 0-.132.226-.38.226-.59 0-.09-.074-.261-.226-.261-.338 0-.982.548-2.283.548-1.019 0-2.018-.586-2.018-1.381 0-.172.075-.267.187-.267.114 0 .266.077.4.077.109 0 .129-.077.129-.285 0-.207 0-.797.36-.797.357 0 1.036 1.33 3.643 1.33.865 0 2.542-.171 3.166-.74-.018 2.078-1.642 4.826-5.038 4.826-3.527 0-5.414-2.84-5.414-5.454a5.563 5.563 0 015.585-5.525c.827 0 1.529.282 1.529.642 0 .494-1.228.191-1.32.777m5.791 1.005c.13.206.187.415.187.603 0 .532-.357 1.023-.357 1.57 0 .629.47 1.138 1.189 1.138.771 0 1.3-.623 1.3-1.363 0-1.002-.908-1.854-2.319-1.948m-6.247 1.21c.19.19.247.377.247.57 0 .282-.134.585-.134.908 0 .45.343.848.831.848.53 0 .89-.416.89-.907 0-.72-.74-1.42-1.834-1.42m2.507-3.218c1.983.378 3.059 1.875 3.059 3.276 0 .966-.602 1.853-1.66 1.853-.964 0-1.657-.66-1.657-1.72 0-.797.618-1.627.618-2.446 0-.318-.093-.643-.36-.963m.982 2.518c0 .267.19.474.457.474.3 0 .487-.267.487-.568 0-.396-.358-.948-.696-.948-.154 0-.098.227-.135.474-.019.19-.113.417-.113.568M17.9 15.59c.643 0 1.376-3.486 1.376-4.073 0-.15-.055-.266-.187-.266-.583 0-1.396 3.315-1.396 4.054 0 .132.037.284.208.284m4.62 1.04c.471 0 1-1.815 1-2.953 0-.247-.036-.51-.15-.51-.398 0-1.058 1.875-1.058 2.894 0 .4.096.57.209.57m-3.075-1.683c.209 0 .473-.226.962-.777.038-.246.038-.473.038-.76 0-.376-.15-.794-.377-.794-.568 0-.85 1.516-.85 1.913 0 .224.114.418.227.418m2.586-.777c0-.322-.08-.397-.154-.397-.188 0-.396.226-.696.735.037.684.15.987.339.987.207 0 .51-.665.51-1.325m1.453-2.236c1.242 0 1.809 1.082 1.809 2.291 0 .528-.15 1.307-.397 1.307-.244 0-.205-.434-.244-.834-.035-.51-.131-.623-.304-.623-.318 0-.526.755-.526 1.457 0 .436.075.927.414.927.188 0 .36-.093.473-.208-.074.871-.718 1.629-1.625 1.629-1.657 0-2.28-1.948-2.47-3.087-1 1.06-1.922 1.837-3.585 1.837-1.546 0-2.243-1.135-2.243-2.216 0-.322.114-1.155.509-1.155.472 0 .059 1.555.983 1.555.226 0 .64-.192.865-.815.133-.38.21-.777.21-1.117 0-.512-.113-.834-.492-.834-.32 0-.717.245-.85.378.454-1.363 1.55-2.06 2.757-2.06 1.489 0 2.28 1.324 2.28 2.8 0 .207-.016.436-.055.643.641-1.058 1.528-1.875 2.49-1.875" fill="#1F36C7"/><path d="M19.957 17.026c-.812 0-.85.986-.85 2.974-.601-1.307-1.601-2.708-2.771-2.708-.794 0-1.094.533-1.094 1.455 0 .193.018.476.054.646.096-.32.398-.453.773-.453.813 0 1.794.622 2.437 1.475-.739-.13-1.455-.264-2.057-.264-.38 0-.718.038-1 .171-.548.244-1.285 1.06-1.285 2.29 0 .189.02.4.058.626.657-1.48 2.414-2.142 3.545-2.142.226 0 .397.02.526.04-.58.53-.713 1.458-.75 2.081-.018.303-.133.323-.342.323 0 .624.492 1.552.492 2.023 0 .174-.093.326-.187.363 0 .83.828 1.438.828 1.966 0 .134-.04.247-.096.305.055.342.97.913 1.089 1.201.147.349.309.408.401.408.324 0 .83-.377.83-.72 0-.113-.095-.245-.169-.302-.357-.264-.546-.836-.698-1.213-.133 0-.302-.053-.36-.276-.105-.394-.11-1.124-.262-1.558-.243-.058-.356-.151-.356-.664 0-.245.15-1.211.15-1.553-.113 0-.265-.076-.265-.303 0-.605.602-1.081.773-1.855 1.076.797 1.337 1.61 1.337 2.329 0 .378-.054.74-.13 1.08.792-.398 1.981-.985 1.981-2.177 0-.702-.322-1.479-2.452-1.782.66-.246 1.49-.377 2.189-.377 1.205 0 1.903.377 2.054 1.23.247-.377.436-.813.436-1.212 0-.928-.775-1.532-1.756-1.532-1.15 0-2.169.604-3.261 1.344.489-1.023.827-1.627 1.433-1.627.094 0 .189.019.281.038-.226-.835-1.074-1.65-1.526-1.65M51.74 30.674c.943 0 1.696 1.234 1.696 2.672 0 1.533-.716 3.2-1.994 4.333-.022-2.552-3.136-1.74-3.136-3.593 0-.796.567-1.327 1.248-1.327.601 0 1.075.169 1.414.512a1.688 1.688 0 01-.51-1.215c0-.718.454-1.382 1.282-1.382M34.896 12.69c.494.476.924.683 1.451.683.21 0 .455-.054.589-.054.166 0 .283.073.283.204 0 .212-.192.552-.417.74.225.095.47.132.737.132 1.073 0 2.297-.682 2.297-2.384.229.302.362.928.362 1.211 0 2.064-1.512 2.857-2.904 2.857-.908 0-1.362-.298-1.474-.298-.356 0-.34.715-.585.698-.434-.075-.828-1.042-.828-2.065 0-.605.15-1.248.489-1.723m2.845-1.38c-.15-.248-.714-.38-.978-.38-.83 0-1.394.586-1.51 1.117a1.761 1.761 0 01-.132-.643c0-.833.569-1.853 1.948-1.853 1.204 0 1.674.641 1.844.641.19 0 .38-.19.53-.19.205 0 .205.324.205.55 0 .759-.339 2.063-1.188 2.537a1.912 1.912 0 00-.94-.908.296.296 0 01-.188-.285c0-.207.188-.473.41-.585M21.785 7.183c0 .664 2.359 3.9 2.812 3.9.377 0 .66-.663.66-1.23a.78.78 0 00-.114-.416c-.338-.474-2.734-2.369-3.264-2.369-.057 0-.094.06-.094.115M7.923 5.233c0 .38-1.437 1.647-1.944 1.647-.187 0-.246-.225-.246-.434 0-.381.173-.91.376-1.078.246-.23.812-.342 1.245-.342.264 0 .569.057.569.206m17.22 1.097c0-1.132-3.061-3.198-3.095-4.087 0-.082.042-.162.11-.233.526-.555 2.702-.96 2.702-1.435 0-.245-.453-.245-.679-.245-1.753 0-4.318.646-4.318 1.267 0 .646 2.3 2.22 2.3 2.995 0 .206-.13.282-.34.282-.64 0-2.038-.775-2.697-.775-.3 0-.413.209-.413.51 0 .91 1.072 2.635 1.072 3.144 0 .054-.016.132-.094.132-.339 0-1.94-1.894-2.507-1.894-.21 0-.228.286-.228.702v.642c0 .437-.018.702-.225.702-.49 0-.719-1.38-1.19-1.38-.488 0-.586 2.46-1.057 2.46-.545 0-.074-2.711-.603-2.711-.581 0-1.246 1.8-1.66 1.8-.15 0-.188-.15-.188-.282 0-.551.32-1.438.32-1.97 0-.264-.075-.416-.301-.416-.585 0-1.867.948-2.356.948-.077 0-.172-.04-.172-.117 0-.454 2.056-1.891 2.056-2.535 0-.624-2.83-.206-2.83-.928 0-.606 2.02-1.232 2.02-1.855 0-.548-2.395-.796-3.32-.796-1.114 0-1.717.131-1.717.454 0 .494 2.529.644 2.529 1.078 0 .42-2.62 1.536-2.62 2.18 0 .568 3.696.036 3.696.625 0 .641-3.23 3.425-3.23 4.351 0 .21.154.305.363.305.978 0 3.524-1.875 4.223-1.875.245 0 .264.305.264.566 0 .495-.167 1.252-.167 1.801 0 .435.11.739.487.739.7 0 1.339-1.192 1.812-1.192.604 0 .245 3.503 1.15 3.503.772 0 1.096-3.788 1.583-3.788.493 0 .889 1.097 1.343 1.097.564 0 .301-1.911.905-1.911.66 0 2.544 2.272 3.394 2.272.264 0 .357-.207.357-.475 0-1.003-1.394-3.273-1.394-3.994 0-.19.056-.242.263-.242.737 0 2.888 1.019 3.906 1.019.34 0 .546-.188.546-.438m-1.96-3.746c0 .342 1.187 1.08 1.734 1.08.32 0 .414-.436.414-.892 0-.566-.245-.586-.734-.586-.623 0-1.414.17-1.414.398M18.75.653c0-.113-.568-.23-1.34-.23-1.228 0-1.056 1.024-2 1.024-.98 0-.736-1.062-1.98-1.062-.754 0-1.452.133-1.452.307 0 .226.885.132.885.755 0 .663-1.905.852-1.905 1.248 0 .133.15.192.34.192.415 0 1.074-.192 1.548-.192.263 0 .51.057.51.306 0 .471-1.021 1.325-1.021 1.703 0 .115.093.15.187.15.38 0 1.02-.964 1.626-.964 1 0 .336 2.14.885 2.14.566 0 .322-2.104 1.13-2.104.662 0 1.153 1.457 1.604 1.457.113 0 .208-.093.208-.225 0-.399-.565-1.213-.565-1.742 0-.32.228-.476.528-.476.433 0 1.02.269 1.338.269.113 0 .226-.038.226-.171 0-.455-1.677-.947-1.677-1.533 0-.587.925-.587.925-.851M52.192 3.718c0 1.684-1.224 2.974-3.434 3.333.246.017.473.017.7.017 2.58 0 3.527-1.17 3.527-2.157 0-.55-.302-1.04-.793-1.193m-3.188 1.914c0-1.344-3.204-1.687-3.204-1.99 0-.245 1.791-.66 2.713-.682-1.414-1.814-3.429-1.627-3.429-1.948 0-.188 1.509-.569 2.903-.569 1.169 0 2.265.265 2.265 1.153 0 .495-.397 1.007-.397 1.763 0 .42.208.779.753.779.586 0 .72-.628.72-1.291 0-.548-.097-.963-.097-1.23 0-.793.545-1.326 1.322-1.326.64 0 .789.283 1.733.283-.507.306-.694.856-.694 1.12 0 .794.505 1.344.505 2.972 0 2.99-2.79 4.05-6.204 4.05a19.5 19.5 0 01-2.922-.226c-.153-.017-.189-.057-.189-.152 0-.244 1.339-.378 1.339-1.589 0-.473-.15-.928-.15-1.099 0-.096.076-.15.15-.15.283 0 .851 1.098 1.903 1.098.282 0 .98-.095.98-.966m3.075-4.185c0 .265.206.474.474.474a.467.467 0 00.469-.474.464.464 0 00-.469-.472.466.466 0 00-.474.472M12.657 38.89c-.624.154-1.624 1.136-1.624 2.691 0 1.856 1.981 4.716 5.246 4.716 2.753 0 3.432-1.912 3.432-3.202 0-2.86-1.755-4.864-4.034-4.864-1.248 0-2.36.91-2.36 2.252 0 1.25.942 3.125 3.188 3.125 1.057 0 1.677-.758 1.677-1.628 0-.854-.772-2.025-1.903-2.025-.343 0-.585.223-.585.583 0 .454.622.913 1.394.913.189 0 .34-.04.418-.077.037.056.056.15.056.227 0 .433-.418.702-1.057.702-.963 0-1.889-.722-1.889-1.857 0-.68.587-1.175 1.433-1.175 1.681 0 2.681 1.496 2.681 2.99 0 1.347-.737 2.124-2.244 2.124-3.02 0-4.49-2.728-3.829-5.495M50.402 18.94c0-.396-1-.434-1.095-1.552-.018-.171-.075-.474-.286-.474-.337 0-.074 1.04-.452 1.04-.865 0-1.15-1.703-1.47-1.703-.075 0-.164.057-.164.284 0 .208.037.34.037.587 0 .246-.059.417-.283.417-.51 0-.963-1.192-1.4-1.192-.092 0-.186.057-.186.15 0 .227.375.646.375.854 0 .453-1.227.207-1.227.589 0 .165.17.225.398.225.396 0 1.019-.173 1.34-.173.19 0 .474.039.474.283 0 .269-.68.609-.68.854 0 .114.114.17.206.17.51 0 1.411-.89 2.054-.89.113 0 .394.058.394.229 0 .246-.639.68-.639 1.04 0 .092.056.208.17.208.338 0 .79-.889 1.434-.889.243 0 .603.093.792.093.15 0 .208-.093.208-.15m.492 9.182c.3-.949.678-1.61 1.298-2.633-.62-.32-2.26-1.003-2.26-2.121 0-1.305 1.62-2.326 1.958-2.326.147 0 .19.129.19.378 0 .681-.323 1.78-.323 2.365 0 .53.34 1.043.64 1.043.323 0 1.208-1.137 1.208-2.254 0-2.007-1.755-2.614-2.298-2.614-.507 0-1.431.837-3.603.837-4.055 0-4.979-4.035-4.979-5.793 0-.077.015-.097.037-.097.093 0 .49.493 1.772.493.663 0 1.267-.17 2.23-.17 2.257 0 3.262 1.569 4.656 3.577.847.53 2.866 1.382 2.866 3.787 0 2.121-2.249 3.295-2.792 5.566.867-.096 1.378-1.648 2.265-1.648.452 0 .659.362.659.928 0 .833-.47 2.083-1.376 2.856.019-.074.019-.169.019-.282 0-.529-.21-1.288-.813-1.288-.941 0-1.24 1.023-1.772 1.874-.545-1.93-1.282-3.674-2.602-4.733-1.337-1.076-3.64-.492-3.64-2.46 0-.53.338-1.286.338-1.892 0-.21-.038-.4-.15-.552 1.812.683 1.17 1.895 2.286 3.144.692.797 2.618 1.555 3.734 4.827.015-.093.034-.34.034-.509 0-2.804-3.692-5.548-4.013-6.685 2.145.247 2.524.778 3.542 3.617.208.586.889 2.045.889 2.765" fill="#1F36C7"/><g transform="translate(34.076 .157)"><mask id="e" fill="#fff"><use xlink:href="#d"/></mask><path d="M6.498 7.937c-1.322 0-2.189-.665-2.189-1.004 0-.17.113-.285.263-.285.415 0 1.32.642 1.626.642.074 0 .13-.033.13-.151 0-.34-.32-.906-.32-1.193 0-.073.056-.13.17-.13.508 0 1.264.21 1.663.21.13 0 .167-.08.167-.153 0-.417-1.227-1.232-1.227-1.478 0-.225 1.526-.568 1.526-.925 0-.381-2.072-.117-2.072-.476 0-.264.394-.719.394-.927 0-.095-.074-.133-.207-.133-.169 0-1.076.359-1.452.359-.189 0-.416-.038-.416-.302 0-.436.736-.909 1.888-.909 1.865 0 2.977 1.29 2.977 3.445 0 2.73-1.901 3.41-2.921 3.41M2.818 4.34c0-.209-.736-.606-.736-.835 0-.035.037-.055.096-.055.208 0 .567.076.848.076.25 0 .283-1.06.47-1.06.132 0 .358 1.004.569 1.004.244 0 .694-.286.886-.286.036 0 .077.018.077.057 0 .132-.474.645-.474.796 0 .168 1.055.377 1.055.528 0 .19-1.074.17-1.074.341 0 .134.395.664.395.835 0 .037-.019.054-.058.054-.15 0-.732-.263-.902-.263-.21 0-.544.774-.715.774-.059 0-.092-.073-.092-.17l-.04-.756c0-.074-.036-.154-.13-.154-.23 0-.663-.015-.798-.015-.093 0-.132-.02-.132-.058 0-.152.756-.682.756-.813M2.27 7.44c.303 0 .36.74.416 1.174.039.23.076.25.172.25.228 0 .585-.872.825-.872.36 0 1.323 1.003 2.927 1.003 2.28 0 4.434-1.61 4.434-4.448 0-2.746-1.926-4.354-4.584-4.354-1.265 0-2.19.624-2.681.624C3.48.837 3.026.081 2.8.081c-.093 0-.187.185-.187.51 0 .208 0 .869-.227.869C1.932 1.46.178.158.178.629c0 .434 1.169 1.758 1.169 2.101 0 .34-1.152.662-1.152.892 0 .415 1.228.49 1.228 1.019 0 .53-1.282.95-1.282 1.343 0 .322 1.282.098 1.282.495 0 .396-.943 1.722-.943 2.102 0 .09.019.09.095.09.357 0 1.433-1.23 1.696-1.23" fill="#1F36C7" mask="url(#e)"/></g><path d="M27.802 40.841a.865.865 0 01-.207.552c-.207-.377-.794-.57-1.057-.57-1.94 0-1.207 2.822-3.28 2.822-.867 0-.945-.117-1.265-.117-.132 0-.208.061-.208.173 0 .492.7 1.704 2.64 1.704 1.944 0 3.814-1.191 3.814-2.67 0-.246-.057-.508-.172-.775.074-.114.267-.19.433-.19.302 0 .474.344.757.344.302 0 .528-.23.528-.533 0-.244-.133-.415-.357-.532a.653.653 0 00.263-.51c0-.32-.226-.621-.604-.621-.172 0-.285.055-.416.184-.034-.337-.225-.66-.584-.66-.285 0-.492.207-.492.531 0 .302.207.549.207.868" fill="#1F36C7"/><path d="M17.467 37.324c1.51.374 2.261 1.191 2.415 2.155.15.926.338 1.687.696 2.065.47.53 1.396 1 2.209 1 .677 0 1.224-.224 1.224-.85 0-.678-.926-2.215-2.281-2.215-.134 0-.302.02-.491.02-.17 0-.416-.038-.567-.17-.301-.264-.396-1.686-.96-2.537-.623-.947-1.303-1.213-2.228-1.213-.66 0-1.394.36-1.394.889 0 .324.168.551 1.377.856m5.262 4.24c-.566 0-1.414-.609-1.414-.948 0-.285.263-.438.47-.438.474 0 1.32.59 1.32 1.081 0 .134-.094.305-.376.305" fill="#1F36C7"/><path d="M20.994 26.816c0-1.213 2.867-1.856 2.867-3.35 0-.249-.093-.684-.265-1.005 1.001.551 1.735 1.477 1.735 2.235 0 1.304-1.357 1.91-1.357 2.724 0 .949 1.451 1.1 1.451 2.273 0 .966-1.377 2.082-1.377 3.33 0 .966.68 1.76 1.718 1.894-.34.075-.64.134-.961.134-1.907 0-3.868-1.572-3.868-3.449 0-.928.396-1.738.998-2.325.531.453 1.057.756 1.396.756.304 0 .437-.15.437-.378 0-.702-2.774-1.344-2.774-2.839m6.018 9.557c-.648.3-.906.249-.906.913 0 .246-.057.566-.057.737 0 .226.037.358.302.358.678 0 1.753-1.154 1.753-2.138 0-.265-.15-.38-.32-.38-.15 0-.32.305-.772.51m-.075-1.362c0-.85-1.755-.868-1.755-2.156 0-.324.206-.87.62-1.458.173.983.567 1.494 1.419 1.818 1.676.622 1.903 1.569 1.903 2.574 0 1.702-1.188 3.822-4.244 3.822-2.452 0-4.208-2.196-4.208-4.049 0-.51.134-1.083.452-1.083.283 0 .38.23.605.459.848.85 1.772 1.078 3.114 1.078 1.206 0 2.094-.49 2.094-1.005M13.576 35.422a.72.72 0 01-.627.8.719.719 0 01-.794-.634.717.717 0 01.627-.8.718.718 0 01.794.634m-3.525.746c.08.645.68 1.135 1.362 1.06.243-.025.47-.096.62-.19.15.605.658.996 1.342.905.697-.09 1.167-.64 1.091-1.338a1.273 1.273 0 00-.113-.437s.095-.012.162-.025c.681-.127 1.142-.677 1.084-1.34-.076-.68-.684-1.186-1.32-1.11a1.23 1.23 0 00-.626.259c-.168-.567-.7-1.062-1.424-.941-.66.11-1.09.669-1.025 1.377.01.113.035.245.094.377l-.187.027c-.551.082-1.148.638-1.06 1.376" fill="#1F36C7"/></g></svg>